HIERARCHY
ROOT Hips
{
	OFFSET 0.00 0.00 0.00
	CHANNELS 6 Xposition Yposition Zposition Yrotation Xrotation Zrotation
	JOINT Spine
	{
		OFFSET	0.0000	9.2263	1.5771
		CHANNELS 3 Xrotation Yrotation Zrotation
		JOINT Spine1
		{
			OFFSET	0.0000	16.2540	-0.1656
			CHANNELS 3 Xrotation Yrotation Zrotation
			JOINT Spine2
			{
				OFFSET	0.0000	13.6396	-1.2923
				CHANNELS 3 Xrotation Yrotation Zrotation
				JOINT Neck
				{
					OFFSET	0.0000	13.8774	-4.3542
					CHANNELS 3 Xrotation Yrotation Zrotation
					JOINT Neck1
					{
						OFFSET	0.0000	4.3400	0.9269
						CHANNELS 3 Xrotation Yrotation Zrotation
						JOINT Head
						{
							OFFSET	0.0000	4.0266	0.8585
							CHANNELS 3 Xrotation Yrotation Zrotation
							End Site
							{
								OFFSET 0.0000 23.0297 0.1231
							}
						}
					}
				}
				JOINT LeftShoulder
				{
					OFFSET	6.1442	10.1870	-3.7932
					CHANNELS 3 Zrotation Xrotation Yrotation
					JOINT LeftArm
					{
						OFFSET	12.3191	-1.1130	-1.7935
						CHANNELS 3 Zrotation Xrotation Yrotation
						JOINT LeftForeArm
						{
							OFFSET	27.6870	0.0000	0.0000
							CHANNELS 3 Xrotation Zrotation Yrotation
							JOINT LeftHand
							{
								OFFSET	27.8738	0.0000	0.0000
								CHANNELS 3 Zrotation Yrotation Xrotation
								JOINT LeftHandThumb1
								{
									OFFSET	2.3785	-1.0029	2.6209
									CHANNELS 3 Zrotation Xrotation Yrotation
									JOINT LeftHandThumb2
									{
										OFFSET	3.3624	-1.0029	2.8398
										CHANNELS 3 Zrotation Xrotation Yrotation
										JOINT LeftHandThumb3
										{
											OFFSET	4.5018	-1.3445	2.1783
											CHANNELS 3 Zrotation Xrotation Yrotation
											End Site
											{
												OFFSET 2.6000 -1.0000 1.0000
											}
										}
									}
								}
								JOINT LeftHandMiddle1
								{
									OFFSET	10.4639	0.6148	0.4298
									CHANNELS 3 Zrotation Xrotation Yrotation
									JOINT LeftHandMiddle2
									{
										OFFSET	5.7921	0.0000	0.0000
										CHANNELS 3 Zrotation Xrotation Yrotation
										JOINT LeftHandMiddle3
										{
											OFFSET	3.7132	0.0000	0.0000
											CHANNELS 3 Zrotation Xrotation Yrotation
											End Site
											{
												OFFSET 2.3000 0.0000 0.0000
											}
										}
									}
								}
								JOINT LeftHandIndex1
								{
									OFFSET	10.3945	0.6148	2.7055
									CHANNELS 3 Zrotation Xrotation Yrotation
									JOINT LeftHandIndex2
									{
										OFFSET	5.5493	0.0000	0.0000
										CHANNELS 3 Zrotation Xrotation Yrotation
										JOINT LeftHandIndex3
										{
											OFFSET	3.3911	0.0000	0.0000
											CHANNELS 3 Zrotation Xrotation Yrotation
											End Site
											{
												OFFSET 2.5000 0.0000 0.0000
											}
										}
									}
								}
								JOINT LeftHandRing1
								{
									OFFSET	10.3252	0.3211	-1.8755
									CHANNELS 3 Zrotation Xrotation Yrotation
									JOINT LeftHandRing2
									{
										OFFSET	5.4452	0.0000	0.0000
										CHANNELS 3 Zrotation Xrotation Yrotation
										JOINT LeftHandRing3
										{
											OFFSET	3.7132	0.0000	0.0000
											CHANNELS 3 Zrotation Xrotation Yrotation
											End Site
											{
												OFFSET 2.0000 0.0000 0.0000
											}
										}
									}
								}
								JOINT LeftHandPinky1
								{
									OFFSET	10.0130	-0.0783	-3.9671
									CHANNELS 3 Zrotation Xrotation Yrotation
									JOINT LeftHandPinky2
									{
										OFFSET	3.6763	0.0000	0.0000
										CHANNELS 3 Zrotation Xrotation Yrotation
										JOINT LeftHandPinky3
										{
											OFFSET	2.8113	0.0000	0.0000
											CHANNELS 3 Zrotation Xrotation Yrotation
											End Site
											{
												OFFSET 2.9000 0.0000 0.0000
											}
										}
									}
								}
							}
						}
					}
				}
				JOINT RightShoulder
				{
					OFFSET	-6.1402	10.1870	-3.7932
					CHANNELS 3 Zrotation Xrotation Yrotation
					JOINT RightArm
					{
						OFFSET	-12.3231	-1.1130	-1.7935
						CHANNELS 3 Zrotation Xrotation Yrotation
						JOINT RightForeArm
						{
							OFFSET	-27.6870	0.0000	0.0000
							CHANNELS 3 Xrotation Zrotation Yrotation
							JOINT RightHand
							{
								OFFSET	-27.8738	0.0000	0.0000
								CHANNELS 3 Zrotation Yrotation Xrotation
								JOINT RightHandThumb1
								{
									OFFSET	-2.5178	-0.9367	2.5137
									CHANNELS 3 Zrotation Xrotation Yrotation
									JOINT RightHandThumb2
									{
										OFFSET	-3.2638	-1.0870	2.9669
										CHANNELS 3 Zrotation Xrotation Yrotation
										JOINT RightHandThumb3
										{
											OFFSET	-4.4165	-1.3703	2.1350
											CHANNELS 3 Zrotation Xrotation Yrotation
											End Site
											{
												OFFSET -2.6000 -1.0000 1.0000
											}
										}
									}
								}
								JOINT RightHandIndex1
								{
									OFFSET	-10.4665	0.4896	2.7120
									CHANNELS 3 Zrotation Xrotation Yrotation
									JOINT RightHandIndex2
									{
										OFFSET	-5.3768	0.0000	0.0000
										CHANNELS 3 Zrotation Xrotation Yrotation
										JOINT RightHandIndex3
										{
											OFFSET	-3.3855	0.0000	0.0000
											CHANNELS 3 Zrotation Xrotation Yrotation
											End Site
											{
												OFFSET -2.6000 0.0000 0.0000
											}
										}
									}
								}
								JOINT RightHandMiddle1
								{
									OFFSET	-10.7596	0.4896	0.4278
									CHANNELS 3 Zrotation Xrotation Yrotation
									JOINT RightHandMiddle2
									{
										OFFSET	-5.6168	0.0000	0.0000
										CHANNELS 3 Zrotation Xrotation Yrotation
										JOINT RightHandMiddle3
										{
											OFFSET	-3.7364	0.0000	0.0000
											CHANNELS 3 Zrotation Xrotation Yrotation
											End Site
											{
												OFFSET -2.3000 0.0000 0.0000
											}
										}
									}
								}
								JOINT RightHandRing1
								{
									OFFSET	-10.4702	0.3879	-1.9363
									CHANNELS 3 Zrotation Xrotation Yrotation
									JOINT RightHandRing2
									{
										OFFSET	-5.4013	0.0000	0.0000
										CHANNELS 3 Zrotation Xrotation Yrotation
										JOINT RightHandRing3
										{
											OFFSET	-3.3916	0.0000	0.0000
											CHANNELS 3 Zrotation Xrotation Yrotation
											End Site
											{
												OFFSET -2.2000 0.0000 0.0000
											}
										}
									}
								}
								JOINT RightHandPinky1
								{
									OFFSET	-9.9715	-0.1191	-3.9540
									CHANNELS 3 Zrotation Xrotation Yrotation
									JOINT RightHandPinky2
									{
										OFFSET	-3.6528	0.0000	0.0000
										CHANNELS 3 Zrotation Xrotation Yrotation
										JOINT RightHandPinky3
										{
											OFFSET	-2.7820	0.0000	0.0000
											CHANNELS 3 Zrotation Xrotation Yrotation
											End Site
											{
												OFFSET -2.9000 0.0000 0.0000
											}
										}
									}
								}
							}
						}
					}
				}
			}
		}
	}
	JOINT LeftUpLeg
	{
		OFFSET	9.6338	-3.2733	0.0000
		CHANNELS 3 Xrotation Yrotation Zrotation
		JOINT LeftLeg
		{
			OFFSET	0.0000	-41.7300	-1.7300
			CHANNELS 3 Xrotation Yrotation Zrotation
			JOINT LeftFoot
			{
				OFFSET	0.0126	-39.1900	-0.8477
				CHANNELS 3 Xrotation Yrotation Zrotation
				JOINT LeftToeBase
				{
					OFFSET	-0.1833	-12.1931	8.2823
					CHANNELS 3 Xrotation Yrotation Zrotation
					End Site
					{
						OFFSET 0.0000 0.0000 10.1681
					}
				}
			}
		}
	}
	JOINT RightUpLeg
	{
		OFFSET	-9.6338	-3.2733	0.0000
		CHANNELS 3 Xrotation Yrotation Zrotation
		JOINT RightLeg
		{
			OFFSET	0.0000	-41.7300	-1.7300
			CHANNELS 3 Xrotation Yrotation Zrotation
			JOINT RightFoot
			{
				OFFSET	0.0126	-39.1900	-0.8477
				CHANNELS 3 Xrotation Yrotation Zrotation
				JOINT RightToeBase
				{
					OFFSET	-0.1833	-12.1931	8.2823
					CHANNELS 3 Xrotation Yrotation Zrotation
					End Site
					{
						OFFSET 0.0032 0.0000 10.1681
					}
				}
			}
		}
	}
}
MOTION
Frames: 5
Frame Time: 0.0333333
-22.6501 20.4050 -90.8493 162.5295 -66.6832 -146.1712 6.0523 -1.5969 0.2893 12.1302 -3.3105 0.9778 12.1303 -3.3105 0.9778 19.0091 16.1599 6.8088 -0.0000 0.0000 -0.0000 10.6939 20.8622 -18.0808 0.8766 0.1920 -8.3096 -21.8250 -20.8647 12.6912 16.1212 -22.1425 -43.4226 30.4764 2.5454 -1.2073 -6.6421 -17.0163 -16.4351 8.9414 11.4589 5.5545 13.4315 10.0841 -14.1869 -20.0825 -4.6032 -4.3519 -37.1391 4.1635 -7.4774 -21.3407 1.6489 -1.0116 -11.3441 0.5847 -5.5629 -20.1054 1.8994 -6.1801 -23.3450 1.9125 -0.9614 -32.6404 -3.4708 -4.7543 -36.5466 0.6958 -4.6735 -22.5666 -0.0623 -1.1530 -37.6423 -9.1791 -4.9764 -44.4401 1.7038 -4.1732 -26.2490 0.6395 -2.6285 4.6290 0.7158 3.1902 66.1293 -3.8860 31.4044 63.1828 49.9970 102.4068 13.9825 -18.7731 24.2244 38.0405 14.3413 -39.0029 -18.3716 0.1878 21.0733 -15.5473 -16.1016 -17.6201 58.8270 1.7091 3.8419 65.8237 6.8089 6.0624 59.3252 2.8974 2.1494 65.2892 4.4411 6.3449 83.6702 9.0538 5.2555 32.7109 0.7924 0.9029 76.6346 1.6514 3.3266 72.7783 4.1786 5.4960 39.1058 0.2391 2.0570 83.4636 6.4928 8.8332 54.1894 1.9734 3.8539 25.7362 0.4704 2.0616 -33.0795 12.6913 11.4551 16.1735 -5.0929 -2.3985 8.7295 15.9760 -22.5408 -3.1642 -2.3219 5.5083 -84.0638 22.3284 -10.0018 33.2701 -5.6585 -14.8417 14.3626 1.1133 13.4472 -1.3769 0.6211 -0.9852 
-22.9424 20.2661 -91.3954 169.8950 -68.1935 -152.0367 5.6780 -1.5739 0.1283 11.3761 -3.4511 0.6205 11.3761 -3.4511 0.6205 16.0193 15.6112 5.0204 -0.0000 0.0000 -0.0000 8.7177 20.4365 -18.1529 -0.3710 0.2595 -8.1146 -20.1891 -19.7843 16.6799 8.7317 -22.7848 -36.6347 28.5237 0.7469 -7.3546 -6.6421 -17.0163 -16.4351 8.9414 11.4589 5.5545 13.4315 10.0841 -14.1869 -19.9696 -4.6118 -4.3311 -37.0269 4.1488 -7.4738 -21.2278 1.6476 -1.0029 -11.2599 0.5803 -5.5537 -20.0215 1.8905 -6.1742 -23.2607 1.9117 -0.9554 -32.4892 -3.4851 -4.7294 -36.3951 0.6837 -4.6625 -22.4150 -0.0653 -1.1371 -37.4928 -9.1920 -4.9372 -44.2923 1.6932 -4.1621 -26.1010 0.6327 -2.6147 2.8338 0.5409 2.4172 67.6680 -2.7385 30.3786 60.6299 52.1064 100.7685 14.7861 -22.4023 28.7616 38.0405 14.3413 -39.0029 -18.3716 0.1878 21.0733 -15.5473 -16.1016 -17.6201 58.8270 1.7091 3.8419 65.8236 6.8089 6.0624 59.3252 2.8974 2.1494 65.2892 4.4411 6.3449 83.6702 9.0538 5.2555 32.7109 0.7924 0.9029 76.6346 1.6514 3.3266 72.7783 4.1786 5.4960 39.1058 0.2391 2.0570 83.4636 6.4928 8.8332 54.1894 1.9734 3.8539 25.7361 0.4704 2.0616 -32.7129 11.6144 14.7680 16.4234 2.2114 -1.2491 14.5075 13.9876 -20.0025 -3.1799 -2.4580 5.3680 -91.0832 25.2950 -6.3530 44.5957 -3.9394 -15.5313 12.0047 0.8386 14.0414 -1.3754 0.6211 -0.9854 
-23.2447 19.8310 -91.6582 177.1401 -69.6755 -157.9957 5.2705 -1.4817 0.0356 10.5556 -3.4291 0.3810 10.5556 -3.4291 0.3810 12.6823 14.7119 3.3235 -0.0000 0.0000 -0.0000 5.6454 19.7589 -17.2484 -2.0123 0.3467 -7.9550 -18.5224 -18.5792 19.8131 0.1538 -19.6066 -28.7308 25.8429 -1.6654 -13.7024 -6.6421 -17.0163 -16.4351 8.9414 11.4589 5.5545 13.4315 10.0841 -14.1869 -19.8481 -4.6210 -4.3086 -36.9061 4.1330 -7.4699 -21.1063 1.6462 -0.9935 -11.1694 0.5747 -5.5439 -19.9313 1.8810 -6.1678 -23.1699 1.9109 -0.9490 -32.3263 -3.5005 -4.7025 -36.2321 0.6706 -4.6507 -22.2517 -0.0685 -1.1199 -37.3318 -9.2058 -4.8949 -44.1331 1.6815 -4.1503 -25.9416 0.6255 -2.5998 0.9731 0.4146 2.0495 68.8796 -1.9995 28.4049 59.8938 56.5203 102.2992 12.1403 -24.8937 35.3628 38.0405 14.3413 -39.0029 -18.3716 0.1878 21.0733 -15.5472 -16.1016 -17.6201 58.8270 1.7091 3.8419 65.8236 6.8089 6.0624 59.3252 2.8974 2.1494 65.2892 4.4411 6.3449 83.6702 9.0538 5.2555 32.7109 0.7924 0.9029 76.6346 1.6514 3.3266 72.7783 4.1786 5.4960 39.1058 0.2391 2.0570 83.4636 6.4928 8.8332 54.1894 1.9734 3.8539 25.7362 0.4705 2.0616 -32.2091 10.6048 18.1264 16.6412 9.5599 -0.1277 19.0513 11.3195 -16.9112 -3.1946 -2.5933 5.2285 -97.6916 27.9895 -3.0290 54.6311 -5.4464 -15.5412 11.6246 0.8280 15.1302 -1.3754 0.6211 -0.9854 
-23.5639 18.6285 -91.6754 -177.0057 -71.7866 -163.0249 4.7851 -1.3721 -0.0301 9.5800 -3.3370 0.2136 9.5800 -3.3370 0.2136 9.4548 13.6335 1.7571 -0.0000 0.0000 -0.0000 2.0311 18.4018 -15.0313 -3.5636 0.3951 -7.8121 -16.8462 -18.0047 21.8632 -7.8465 -13.7883 -20.5396 22.8207 -4.9789 -19.7177 -6.6421 -17.0163 -16.4351 8.9414 11.4589 5.5545 13.4315 10.0841 -14.1869 -19.7185 -4.6308 -4.2847 -36.7773 4.1161 -7.4657 -20.9767 1.6448 -0.9837 -11.0730 0.5680 -5.5334 -19.8350 1.8708 -6.1610 -23.0731 1.9099 -0.9420 -32.1526 -3.5169 -4.6739 -36.0583 0.6567 -4.6381 -22.0777 -0.0719 -1.1016 -37.1602 -9.2205 -4.8497 -43.9634 1.6690 -4.1378 -25.7717 0.6177 -2.5839 -0.8931 0.3143 1.8009 70.4685 -1.3398 25.6762 58.7640 56.7156 104.2309 9.3129 -24.7039 39.6226 38.0405 14.3413 -39.0029 -18.3716 0.1878 21.0733 -15.5472 -16.1016 -17.6201 58.8270 1.7091 3.8419 65.8237 6.8089 6.0624 59.3252 2.8975 2.1494 65.2892 4.4411 6.3449 83.6702 9.0538 5.2555 32.7109 0.7924 0.9029 76.6346 1.6514 3.3266 72.7783 4.1786 5.4960 39.1058 0.2391 2.0570 83.4636 6.4928 8.8332 54.1894 1.9734 3.8539 25.7362 0.4704 2.0616 -31.4806 9.5864 21.4128 15.0536 15.5147 1.0333 20.7717 10.3437 -16.2720 -3.2079 -2.7269 5.0909 -104.1441 30.2358 -0.6313 62.9032 -10.4585 -14.3080 12.9429 0.8312 13.1484 -1.3754 0.6211 -0.9854 
-23.7058 17.1552 -91.5496 -173.2903 -74.5597 -166.3711 4.4124 -1.2659 -0.0967 8.8255 -3.2157 0.0648 8.8255 -3.2157 0.0648 7.1106 12.1505 0.2389 -0.0000 0.0000 -0.0000 -1.4569 16.0913 -11.8983 -4.7617 0.4282 -7.6802 -15.3643 -17.9739 22.9314 -13.0393 -8.1723 -14.9362 20.9809 -6.8564 -24.7695 -6.6421 -17.0163 -16.4351 8.9414 11.4589 5.5545 13.4315 10.0841 -14.1869 -19.5815 -4.6411 -4.2594 -36.6412 4.0983 -7.4612 -20.8397 1.6434 -0.9732 -10.9712 0.5604 -5.5223 -19.7333 1.8598 -6.1538 -22.9708 1.9091 -0.9349 -31.9691 -3.5341 -4.6435 -35.8746 0.6421 -4.6247 -21.8937 -0.0754 -1.0823 -36.9787 -9.2359 -4.8019 -43.7840 1.6559 -4.1244 -25.5921 0.6097 -2.5671 -2.7118 0.2365 1.6477 71.6300 -1.4594 22.0271 58.5108 52.7614 108.1382 7.9645 -24.5607 40.1723 38.0405 14.3413 -39.0029 -18.3716 0.1878 21.0733 -15.5473 -16.1016 -17.6201 58.8270 1.7091 3.8419 65.8237 6.8089 6.0624 59.3252 2.8974 2.1494 65.2892 4.4411 6.3449 83.6702 9.0538 5.2555 32.7109 0.7924 0.9029 76.6346 1.6514 3.3266 72.7783 4.1786 5.4960 39.1058 0.2391 2.0570 83.4636 6.4928 8.8332 54.1894 1.9734 3.8539 25.7362 0.4704 2.0616 -31.3342 8.3341 24.3129 13.5321 19.1759 2.1401 19.8991 10.4567 -16.6903 -3.2195 -2.8579 4.9561 -110.2654 32.5373 0.5497 71.3029 -15.8791 -12.6666 14.4478 0.7826 10.9021 -1.3754 0.6211 -0.9854 
